<svg width="64" height="64" viewBox="0 0 64 64" fill="none" xmlns="http://www.w3.org/2000/svg">
<path d="M32 64C49.6731 64 64 49.6731 64 32C64 14.3269 49.6731 0 32 0C14.3269 0 0 14.3269 0 32C0 49.6731 14.3269 64 32 64Z" fill="#F4F6F9"/>
<path d="M49.2 38.03V37.95C49.1 37.55 48.9899 37.15 48.8699 36.75C47.8519 33.61 46.0804 30.7672 43.71 28.47L38.19 23.01L40.31 20.45C40.665 20.0214 40.9265 19.5233 41.0781 18.9878C41.2296 18.4523 41.2677 17.8911 41.19 17.34C41.1276 16.8407 40.9609 16.3602 40.7007 15.9295C40.4406 15.4988 40.0928 15.1276 39.68 14.84C39.5505 14.7483 39.4133 14.668 39.27 14.6C38.7092 14.309 38.0868 14.157 37.455 14.157C36.8233 14.157 36.2007 14.309 35.64 14.6L34.34 15.24C33.6273 15.6001 32.8371 15.7802 32.0388 15.7645C31.2404 15.7488 30.458 15.5378 29.7599 15.15C29.2743 14.887 28.7405 14.7249 28.1906 14.6734C27.6407 14.6218 27.0861 14.6819 26.56 14.85C26.3852 14.9079 26.2148 14.978 26.05 15.06C25.5306 15.3092 25.0781 15.6787 24.7303 16.1378C24.3824 16.597 24.1493 17.1326 24.05 17.7C23.9311 18.3241 23.9596 18.9673 24.1332 19.5784C24.3069 20.1895 24.6208 20.7516 25.05 21.22L26.77 23.05L21.15 27.91C18.7369 29.9495 16.8388 32.5293 15.6099 35.44C15.3213 36.1494 15.0709 36.8738 14.8599 37.61C14.1872 39.844 14.3512 42.2466 15.3211 44.3686C16.291 46.4906 18.0004 48.1867 20.1299 49.14C21.336 49.6466 22.6319 49.9051 23.94 49.9H39.94C41.3523 49.9021 42.7481 49.5973 44.0309 49.0068C45.3138 48.4163 46.4531 47.5542 47.3699 46.48C48.3231 45.3175 48.9862 43.945 49.3044 42.4758C49.6226 41.0065 49.5868 39.4827 49.2 38.03V38.03Z" fill="white"/>
<path d="M32.56 44.22C35.8737 44.22 38.56 41.5337 38.56 38.22C38.56 34.9063 35.8737 32.22 32.56 32.22C29.2463 32.22 26.56 34.9063 26.56 38.22C26.56 41.5337 29.2463 44.22 32.56 44.22Z" fill="#FFDD00"/>
<path d="M49.2001 38.03L48.7101 38.15L49.18 37.95C49.08 37.55 48.97 37.15 48.85 36.75C47.8321 33.6076 46.0566 30.764 43.68 28.47L38.17 23.01L40.29 20.45C40.645 20.0214 40.9066 19.5233 41.0581 18.9878C41.2096 18.4523 41.2478 17.8911 41.17 17.34C41.1064 16.8411 40.9392 16.361 40.6792 15.9305C40.4192 15.5 40.072 15.1285 39.66 14.84C39.5291 14.7505 39.3921 14.6703 39.25 14.6C38.6865 14.3121 38.0628 14.162 37.43 14.162C36.7973 14.162 36.1734 14.3121 35.61 14.6L34.3201 15.24C33.6073 15.6001 32.8172 15.7802 32.0188 15.7645C31.2204 15.7488 30.438 15.5378 29.74 15.15C29.2532 14.8851 28.7177 14.722 28.1659 14.6704C27.6141 14.6188 27.0575 14.6799 26.53 14.85C26.3566 14.9114 26.1864 14.9815 26.02 15.06C25.5011 15.3098 25.0492 15.6796 24.7014 16.1386C24.3536 16.5977 24.12 17.1329 24.02 17.7C23.8987 18.3241 23.9261 18.9679 24.0998 19.5794C24.2736 20.1909 24.5888 20.7529 25.02 21.22L26.73 23.05L21.12 27.91C18.6988 29.9418 16.7992 32.5238 15.5801 35.44C15.2914 36.1494 15.0411 36.8738 14.8301 37.61C14.1574 39.844 14.3212 42.2466 15.2911 44.3686C16.261 46.4906 17.9705 48.1867 20.1 49.14C21.3019 49.6498 22.5944 49.9117 23.9 49.91H39.9C41.3117 49.9114 42.7068 49.6053 43.9881 49.0129C45.2695 48.4206 46.4065 47.5563 47.3201 46.48C48.284 45.3232 48.9575 43.9527 49.2845 42.4829C49.6115 41.0131 49.5826 39.4864 49.2001 38.03ZM25.02 17.85C25.089 17.4369 25.2557 17.0462 25.5062 16.7105C25.7567 16.3748 26.0837 16.1038 26.4601 15.92L26.8401 15.76C27.2377 15.6304 27.6576 15.5839 28.074 15.6235C28.4903 15.663 28.8939 15.7878 29.26 15.99C30.1009 16.4529 31.0417 16.7048 32.0014 16.724C32.9612 16.7431 33.9113 16.529 34.77 16.1L36.06 15.45C36.4814 15.2357 36.9473 15.124 37.42 15.124C37.8927 15.124 38.3587 15.2357 38.78 15.45L39.0901 15.64C39.3901 15.8467 39.6425 16.1152 39.8304 16.4273C40.0184 16.7394 40.1376 17.0881 40.18 17.45C40.238 17.8629 40.2092 18.2834 40.0956 18.6845C39.9819 19.0857 39.7859 19.4588 39.52 19.78L37.26 22.51H27.72L25.8 20.51C25.4657 20.1621 25.2201 19.7386 25.0843 19.2755C24.9485 18.8124 24.9265 18.3234 25.02 17.85ZM46.5901 45.79C45.768 46.7562 44.7457 47.5321 43.594 48.0639C42.4422 48.5958 41.1886 48.8708 39.92 48.87H23.92C22.7489 48.8681 21.5897 48.6336 20.51 48.18C18.6059 47.3223 17.0791 45.8011 16.2142 43.9003C15.3494 41.9995 15.2057 39.849 15.81 37.85C16.01 37.15 16.25 36.45 16.52 35.77C17.6861 33.006 19.4924 30.5588 21.79 28.63L27.66 23.54H31.53L29.23 26.62C29.1911 26.6731 29.1631 26.7334 29.1476 26.7974C29.1321 26.8614 29.1294 26.9278 29.1396 26.9929C29.1499 27.0579 29.1727 27.1203 29.2071 27.1764C29.2415 27.2326 29.2868 27.2814 29.3401 27.32C29.4255 27.387 29.5314 27.4223 29.64 27.42C29.7175 27.4192 29.7938 27.4008 29.8631 27.3662C29.9325 27.3315 29.9929 27.2815 30.04 27.22L32.25 24.22L36.25 29.54C36.2894 29.5925 36.3387 29.6368 36.3952 29.6702C36.4517 29.7037 36.5143 29.7257 36.5793 29.735C36.6443 29.7443 36.7105 29.7407 36.7742 29.7244C36.8378 29.7081 36.8975 29.6794 36.9501 29.64C37.054 29.5589 37.1223 29.4407 37.141 29.3102C37.1596 29.1796 37.1271 29.047 37.05 28.94L32.99 23.5H37.29L42.98 29.14C45.2371 31.3172 46.9234 34.0166 47.89 37C48.01 37.38 48.1101 37.76 48.2101 38.15V38.23C48.557 39.5285 48.5909 40.8907 48.3093 42.2049C48.0277 43.519 47.4386 44.7477 46.5901 45.79V45.79Z" fill="#0F265C"/>
</svg>
