<svg width="57" height="56" viewBox="0 0 57 56" fill="none" xmlns="http://www.w3.org/2000/svg">
<rect x="0.5" width="56" height="56" rx="28" fill="#F9FAFC"/>
<path d="M23.5 31H30.5V33H23.5V31ZM23.5 27H33.5V29H23.5V27ZM23.5 23H33.5V25H23.5V23ZM35.5 19H31.32C30.9 17.84 29.8 17 28.5 17C27.2 17 26.1 17.84 25.68 19H21.5C21.36 19 21.23 19.01 21.1 19.04C20.71 19.12 20.36 19.32 20.09 19.59C19.91 19.77 19.76 19.99 19.66 20.23C19.56 20.46 19.5 20.72 19.5 21V35C19.5 35.27 19.56 35.54 19.66 35.78C19.76 36.02 19.91 36.23 20.09 36.42C20.36 36.69 20.71 36.89 21.1 36.97C21.23 36.99 21.36 37 21.5 37H35.5C36.6 37 37.5 36.1 37.5 35V21C37.5 19.9 36.6 19 35.5 19ZM28.5 18.75C28.91 18.75 29.25 19.09 29.25 19.5C29.25 19.91 28.91 20.25 28.5 20.25C28.09 20.25 27.75 19.91 27.75 19.5C27.75 19.09 28.09 18.75 28.5 18.75ZM35.5 35H21.5V21H35.5V35Z" fill="#0F265C"/>
</svg>
