<svg width="56" height="56" viewBox="0 0 56 56" fill="none" xmlns="http://www.w3.org/2000/svg">
<g clip-path="url(#clip0_2407_12481)">
<path d="M28 56C43.464 56 56 43.464 56 28C56 12.536 43.464 0 28 0C12.536 0 0 12.536 0 28C0 43.464 12.536 56 28 56Z" fill="#F4F6F9"/>
<path d="M25.27 19.5213C24.1285 19.7095 23.0066 20.0024 21.9187 20.3963L21.14 20.6763L20.615 20.0376C19.6657 18.6646 18.2463 17.6872 16.625 17.29V23.1001L15.9863 23.9226C15.0107 24.8335 14.2151 25.9199 13.6413 27.1251L13.3263 27.79H10.465V33.1101C12.8994 35.759 15.7851 37.9544 18.9875 39.5938L19.8013 39.9875V42.9975C19.8031 43.3204 19.8726 43.6394 20.0053 43.9338C20.138 44.2281 20.3311 44.4914 20.5718 44.7066C20.8126 44.9218 21.0958 45.0841 21.4031 45.1831C21.7105 45.2821 22.0351 45.3156 22.3562 45.2813C22.9363 45.2226 23.4738 44.9498 23.8636 44.5162C24.2535 44.0827 24.468 43.5194 24.465 42.9363V41.5976C25.9266 42.28 27.52 42.6337 29.1331 42.6337C30.7462 42.6337 32.3397 42.28 33.8013 41.5976V42.9975C33.8031 43.3204 33.8726 43.6394 34.0053 43.9338C34.138 44.2281 34.3311 44.4914 34.5718 44.7066C34.8126 44.9218 35.0958 45.0841 35.4031 45.1831C35.7105 45.2821 36.0351 45.3156 36.3562 45.2813C36.9363 45.2226 37.4738 44.9498 37.8636 44.5162C38.2535 44.0827 38.468 43.5194 38.465 42.9363V40.5301C38.78 40.3988 39.0775 40.2588 39.34 40.1188C43.26 38.1851 45.465 34.9388 45.465 30.6601C45.465 25.9788 41.44 21.9101 35.7 20.1601" fill="white"/>
<path d="M36.1725 45.7187C35.4738 45.7217 34.7994 45.4626 34.2825 44.9925C34.0064 44.7368 33.7862 44.4269 33.6356 44.082C33.485 43.7372 33.4074 43.365 33.4075 42.9887V42.2275C30.6924 43.3032 27.6723 43.3188 24.9463 42.2712V42.9275C24.9515 43.4689 24.7981 44 24.5052 44.4553C24.2122 44.9106 23.7923 45.2702 23.2973 45.4898C22.8024 45.7093 22.2541 45.7793 21.7199 45.6909C21.1858 45.6025 20.6891 45.3597 20.2912 44.9925C20.0152 44.7368 19.7949 44.4269 19.6444 44.082C19.4938 43.7372 19.4161 43.365 19.4162 42.9887V40.25L18.8475 39.9787C15.5958 38.3117 12.6658 36.0808 10.1937 33.39C10.1566 33.3518 10.1274 33.3066 10.1079 33.257C10.0884 33.2074 10.0789 33.1545 10.08 33.1012V27.7812C10.08 27.6652 10.1261 27.5539 10.2081 27.4719C10.2902 27.3898 10.4015 27.3437 10.5175 27.3437H13.09L13.2825 26.9325C13.8812 25.6787 14.7092 24.548 15.7237 23.5987L16.2312 22.9425V17.2812C16.2311 17.2176 16.2453 17.1547 16.2725 17.0972C16.2998 17.0397 16.3395 16.989 16.3888 16.9487C16.4374 16.9095 16.4935 16.8808 16.5537 16.8642C16.6139 16.8476 16.677 16.8436 16.7388 16.8525C18.4705 17.2584 19.9893 18.2939 21 19.7575L21.3238 20.1512L21.8137 19.9762C22.9295 19.5759 24.081 19.2829 25.2525 19.1012C25.3685 19.085 25.4862 19.1155 25.5798 19.1861C25.6733 19.2566 25.735 19.3614 25.7512 19.4775C25.7675 19.5935 25.737 19.7113 25.6664 19.8048C25.5958 19.8983 25.4911 19.96 25.375 19.9762C24.2579 20.1588 23.1617 20.452 22.1025 20.8512L21.3238 21.1225C21.2397 21.1522 21.1486 21.1556 21.0626 21.1322C20.9766 21.1087 20.8998 21.0595 20.8425 20.9912L20.3175 20.3525C19.5148 19.2283 18.3975 18.3667 17.1062 17.8762V23.1262C17.1063 23.225 17.0724 23.3209 17.01 23.3975L16.3712 24.22C15.422 25.1085 14.6448 26.1645 14.0787 27.335L13.7638 28.0087C13.7277 28.0824 13.6717 28.1444 13.602 28.1877C13.5324 28.231 13.4519 28.2539 13.3699 28.2537H10.9812V32.9612C13.3555 35.5206 16.1601 37.644 19.2675 39.235L20.0637 39.6112C20.1397 39.6476 20.2038 39.7046 20.2487 39.7759C20.2936 39.8471 20.3175 39.9295 20.3175 40.0137V43.0237C20.3186 43.2806 20.3729 43.5344 20.4768 43.7693C20.5807 44.0042 20.7319 44.2151 20.9212 44.3887C21.1944 44.6404 21.5354 44.8064 21.902 44.8662C22.2686 44.926 22.6447 44.877 22.9837 44.7252C23.3227 44.5734 23.6098 44.3254 23.8093 44.0121C24.0088 43.6988 24.112 43.3339 24.1062 42.9625V41.6237C24.1051 41.5464 24.1245 41.4702 24.1625 41.4028C24.2005 41.3355 24.2556 41.2794 24.3223 41.2402C24.389 41.2011 24.4649 41.1804 24.5422 41.1801C24.6195 41.1798 24.6955 41.2001 24.7625 41.2387C26.1645 41.8848 27.6899 42.2194 29.2337 42.2194C30.7775 42.2194 32.303 41.8848 33.705 41.2387C33.7681 41.2043 33.8388 41.1862 33.9107 41.1862C33.9825 41.1862 34.0532 41.2043 34.1163 41.2387C34.1779 41.2783 34.2286 41.3326 34.2638 41.3968C34.2989 41.461 34.3174 41.533 34.3175 41.6062V43.0062C34.3186 43.2631 34.3729 43.5169 34.4768 43.7518C34.5807 43.9867 34.7319 44.1976 34.9212 44.3712C35.1944 44.6229 35.5354 44.7889 35.902 44.8487C36.2686 44.9085 36.6447 44.8595 36.9837 44.7077C37.3227 44.5559 37.6098 44.308 37.8093 43.9946C38.0088 43.6813 38.112 43.3164 38.1062 42.945V40.5387C38.1066 40.4524 38.1327 40.3681 38.181 40.2964C38.2292 40.2248 38.2976 40.1691 38.3775 40.1362L39.2525 39.7337C43.0763 37.8437 45.0975 34.7112 45.0975 30.6687C45.0975 26.2937 41.3875 22.3737 35.6388 20.5887C35.529 20.5544 35.4371 20.4783 35.3831 20.3767C35.329 20.2752 35.3171 20.1565 35.3499 20.0462C35.3861 19.9358 35.464 19.8438 35.567 19.7899C35.6699 19.736 35.7898 19.7244 35.9012 19.7575C42.0262 21.6475 45.9725 25.935 45.9725 30.6687C45.9725 35.0437 43.785 38.4737 39.6375 40.5125C39.4187 40.6262 39.1999 40.7225 38.9725 40.8275V42.945C38.9701 43.6352 38.7137 44.3005 38.2521 44.8137C37.7905 45.3269 37.1561 45.6522 36.47 45.7275L36.1725 45.7187Z" fill="#0F265C"/>
<path d="M35.6738 22.9425C32.2667 21.7866 28.5711 21.802 25.1738 22.9862L35.6738 22.9425Z" fill="white"/>
<path d="M25.1824 23.4238C25.0911 23.4245 25.0021 23.396 24.9281 23.3425C24.8541 23.289 24.7991 23.2133 24.7712 23.1263C24.7506 23.073 24.7411 23.0161 24.7432 22.959C24.7454 22.9019 24.7591 22.8458 24.7837 22.7942C24.8083 22.7426 24.8431 22.6965 24.8861 22.6588C24.9291 22.6212 24.9794 22.5927 25.0337 22.5751C28.5298 21.3568 32.3351 21.3568 35.8312 22.5751C35.9391 22.618 36.0256 22.7021 36.0715 22.8087C36.1175 22.9154 36.1192 23.0359 36.0762 23.1438C36.0333 23.2517 35.9492 23.3382 35.8425 23.3841C35.7359 23.4301 35.6154 23.4318 35.5075 23.3888C32.2076 22.27 28.631 22.27 25.3312 23.3888L25.1824 23.4238Z" fill="#0F265C"/>
<path d="M31.0625 20.3438C33.962 20.3438 36.3125 17.9932 36.3125 15.0938C36.3125 12.1943 33.962 9.84375 31.0625 9.84375C28.163 9.84375 25.8125 12.1943 25.8125 15.0938C25.8125 17.9932 28.163 20.3438 31.0625 20.3438Z" fill="#FFDD00"/>
</g>
<defs>
<clipPath id="clip0_2407_12481">
<rect width="56" height="56" fill="white"/>
</clipPath>
</defs>
</svg>
