<svg width="64" height="64" viewBox="0 0 64 64" fill="none" xmlns="http://www.w3.org/2000/svg">
<path d="M32 64C49.6731 64 64 49.6731 64 32C64 14.3269 49.6731 0 32 0C14.3269 0 0 14.3269 0 32C0 49.6731 14.3269 64 32 64Z" fill="#F4F6F9"/>
<path d="M25.48 26H21.5C20.6716 26 20 26.6716 20 27.5V42.49C20 43.3184 20.6716 43.99 21.5 43.99H25.48C26.3084 43.99 26.98 43.3184 26.98 42.49V27.5C26.98 26.6716 26.3084 26 25.48 26Z" fill="white"/>
<path d="M25.48 44.48H21.48C20.9495 44.48 20.4408 44.2693 20.0658 43.8942C19.6907 43.5191 19.48 43.0104 19.48 42.48V27.48C19.48 26.9495 19.6907 26.4408 20.0658 26.0658C20.4408 25.6907 20.9495 25.48 21.48 25.48H25.48C26.0104 25.48 26.5191 25.6907 26.8942 26.0658C27.2693 26.4408 27.48 26.9495 27.48 27.48V42.48C27.48 43.0104 27.2693 43.5191 26.8942 43.8942C26.5191 44.2693 26.0104 44.48 25.48 44.48ZM21.48 26.48C21.2148 26.48 20.9604 26.5853 20.7729 26.7729C20.5853 26.9604 20.48 27.2148 20.48 27.48V42.48C20.48 42.7452 20.5853 42.9996 20.7729 43.1871C20.9604 43.3746 21.2148 43.48 21.48 43.48H25.48C25.7452 43.48 25.9996 43.3746 26.1871 43.1871C26.3746 42.9996 26.48 42.7452 26.48 42.48V27.48C26.48 27.2148 26.3746 26.9604 26.1871 26.7729C25.9996 26.5853 25.7452 26.48 25.48 26.48H21.48Z" fill="#0F265C"/>
<path d="M34.49 23.99H30.51C29.6816 23.99 29.01 24.6616 29.01 25.49V42.49C29.01 43.3184 29.6816 43.99 30.51 43.99H34.49C35.3184 43.99 35.99 43.3184 35.99 42.49V25.49C35.99 24.6616 35.3184 23.99 34.49 23.99Z" fill="white"/>
<path d="M34.49 44.48H30.49C29.9596 44.48 29.4508 44.2693 29.0758 43.8942C28.7007 43.5191 28.49 43.0104 28.49 42.48V25.48C28.49 24.9495 28.7007 24.4408 29.0758 24.0658C29.4508 23.6907 29.9596 23.48 30.49 23.48H34.49C35.0204 23.48 35.5291 23.6907 35.9042 24.0658C36.2793 24.4408 36.49 24.9495 36.49 25.48V42.48C36.49 43.0104 36.2793 43.5191 35.9042 43.8942C35.5291 44.2693 35.0204 44.48 34.49 44.48ZM30.49 24.48C30.2248 24.48 29.9704 24.5853 29.7829 24.7729C29.5953 24.9604 29.49 25.2148 29.49 25.48V42.48C29.49 42.7452 29.5953 42.9996 29.7829 43.1871C29.9704 43.3746 30.2248 43.48 30.49 43.48H34.49C34.7552 43.48 35.0096 43.3746 35.1971 43.1871C35.3846 42.9996 35.49 42.7452 35.49 42.48V25.48C35.49 25.2148 35.3846 24.9604 35.1971 24.7729C35.0096 24.5853 34.7552 24.48 34.49 24.48H30.49Z" fill="#0F265C"/>
<path d="M43.49 20H39.51C38.6816 20 38.01 20.6716 38.01 21.5V42.52C38.01 43.3484 38.6816 44.02 39.51 44.02H43.49C44.3184 44.02 44.99 43.3484 44.99 42.52V21.5C44.99 20.6716 44.3184 20 43.49 20Z" fill="white"/>
<path d="M43.49 44.52H39.49C38.9596 44.52 38.4508 44.3093 38.0758 43.9342C37.7007 43.5592 37.49 43.0505 37.49 42.52V21.52C37.49 20.9896 37.7007 20.4809 38.0758 20.1058C38.4508 19.7307 38.9596 19.52 39.49 19.52H43.49C44.0204 19.52 44.5291 19.7307 44.9042 20.1058C45.2793 20.4809 45.49 20.9896 45.49 21.52V42.52C45.49 43.0505 45.2793 43.5592 44.9042 43.9342C44.5291 44.3093 44.0204 44.52 43.49 44.52ZM39.49 20.52C39.2248 20.52 38.9704 20.6254 38.7829 20.8129C38.5953 21.0004 38.49 21.2548 38.49 21.52V42.52C38.49 42.7852 38.5953 43.0396 38.7829 43.2271C38.9704 43.4147 39.2248 43.52 39.49 43.52H43.49C43.7552 43.52 44.0096 43.4147 44.1971 43.2271C44.3846 43.0396 44.49 42.7852 44.49 42.52V21.52C44.49 21.2548 44.3846 21.0004 44.1971 20.8129C44.0096 20.6254 43.7552 20.52 43.49 20.52H39.49Z" fill="#0F265C"/>
<path d="M43.5 30H39.49C38.9488 30 38.51 30.4388 38.51 30.98V42.54C38.51 43.0812 38.9488 43.52 39.49 43.52H43.5C44.0413 43.52 44.48 43.0812 44.48 42.54V30.98C44.48 30.4388 44.0413 30 43.5 30Z" fill="#FFDD00"/>
</svg>
