<svg width="64" height="64" viewBox="0 0 64 64" fill="none" xmlns="http://www.w3.org/2000/svg">
<path d="M32 64C49.6731 64 64 49.6731 64 32C64 14.3269 49.6731 0 32 0C14.3269 0 0 14.3269 0 32C0 49.6731 14.3269 64 32 64Z" fill="#F4F6F9"/>
<path d="M32.21 11.39L48.41 17.92C48.7944 18.0636 49.1253 18.322 49.3579 18.6601C49.5904 18.9982 49.7134 19.3997 49.71 19.81V30.54C49.71 38.54 45.81 44.06 39.32 48.54L32.21 53.39" fill="white"/>
<path d="M32.21 11.39L16.01 17.92C15.6256 18.0636 15.2947 18.322 15.0621 18.6601C14.8296 18.9982 14.7066 19.3997 14.71 19.81V30.54C14.71 38.54 18.61 44.06 25.1 48.54L32.21 53.42" fill="white"/>
<path d="M48.59 17.49L32.39 10.96H32.33H32.21H32.1H32.03L15.84 17.49C15.3616 17.6684 14.9497 17.9895 14.6599 18.4099C14.3701 18.8302 14.2165 19.3295 14.22 19.84V30.57C14.22 38.15 17.59 43.99 24.82 48.95L31.93 53.83C32.0033 53.8815 32.0905 53.9094 32.18 53.91C32.2696 53.9094 32.3568 53.8815 32.43 53.83V53.83L39.54 48.95C46.77 43.95 50.14 38.15 50.14 30.57V19.84C50.1489 19.3377 50.0056 18.8444 49.729 18.425C49.4523 18.0055 49.0553 17.6796 48.59 17.49V17.49ZM49.22 30.57C49.22 37.8 45.98 43.38 39.04 48.14L32.21 52.82L25.38 48.14C18.44 43.38 15.2 37.8 15.2 30.57V19.84C15.1967 19.5271 15.2914 19.221 15.4707 18.9646C15.65 18.7082 15.905 18.5143 16.2 18.41L32.2 11.95L48.2 18.41C48.4933 18.5168 48.7467 18.7114 48.9256 18.9672C49.1045 19.2231 49.2003 19.5278 49.2 19.84L49.22 30.57Z" fill="#0F265C"/>
<path d="M32.21 37.95C35.5237 37.95 38.21 35.2637 38.21 31.95C38.21 28.6363 35.5237 25.95 32.21 25.95C28.8963 25.95 26.21 28.6363 26.21 31.95C26.21 35.2637 28.8963 37.95 32.21 37.95Z" fill="#FFDD00"/>
</svg>
