<svg width="57" height="56" viewBox="0 0 57 56" fill="none" xmlns="http://www.w3.org/2000/svg">
<rect x="0.5" width="56" height="56" rx="28" fill="#F9FAFC"/>
<path d="M28.5 18C22.98 18 18.5 22.48 18.5 28C18.5 33.52 22.98 38 28.5 38C34.02 38 38.5 33.52 38.5 28C38.5 22.48 34.02 18 28.5 18ZM28.5 36C24.09 36 20.5 32.41 20.5 28C20.5 23.59 24.09 20 28.5 20C32.91 20 36.5 23.59 36.5 28C36.5 32.41 32.91 36 28.5 36ZM28.81 27.14C27.04 26.69 26.47 26.2 26.47 25.47C26.47 24.63 27.26 24.04 28.57 24.04C29.95 24.04 30.47 24.7 30.51 25.68H32.22C32.17 24.34 31.35 23.11 29.73 22.71V21H27.4V22.69C25.89 23.01 24.68 23.99 24.68 25.5C24.68 27.29 26.17 28.19 28.34 28.71C30.29 29.17 30.68 29.86 30.68 30.58C30.68 31.11 30.29 31.97 28.58 31.97C26.98 31.97 26.35 31.25 26.26 30.33H24.54C24.64 32.03 25.9 32.99 27.4 33.3V35H29.74V33.33C31.26 33.04 32.46 32.17 32.47 30.56C32.46 28.36 30.57 27.6 28.81 27.14V27.14Z" fill="#0F265C"/>
</svg>
