<svg width="64" height="64" viewBox="0 0 64 64" fill="none" xmlns="http://www.w3.org/2000/svg">
<path d="M32 64C49.6731 64 64 49.6731 64 32C64 14.3269 49.6731 0 32 0C14.3269 0 0 14.3269 0 32C0 49.6731 14.3269 64 32 64Z" fill="#F4F6F9"/>
<path d="M12 23L12 41C12 43.2091 13.7909 45 16 45H48C50.2091 45 52 43.2091 52 41V23C52 20.7909 50.2091 19 48 19L16 19C13.7909 19 12 20.7909 12 23Z" fill="white"/>
<path d="M48 18.5H16C14.8073 18.5026 13.6643 18.9776 12.8209 19.821C11.9776 20.6643 11.5026 21.8073 11.5 23V41C11.5026 42.1927 11.9776 43.3357 12.8209 44.1791C13.6643 45.0224 14.8073 45.4974 16 45.5H48C49.1927 45.4974 50.3357 45.0224 51.1791 44.1791C52.0224 43.3357 52.4974 42.1927 52.5 41V23C52.4974 21.8073 52.0224 20.6643 51.1791 19.821C50.3357 18.9776 49.1927 18.5026 48 18.5V18.5ZM16 19.5H48C48.9283 19.5 49.8185 19.8687 50.4749 20.5251C51.1312 21.1815 51.5 22.0717 51.5 23V39.5H12.5V23C12.5 22.0717 12.8688 21.1815 13.5251 20.5251C14.1815 19.8687 15.0717 19.5 16 19.5V19.5ZM48 44.5H16C15.0717 44.5 14.1815 44.1313 13.5251 43.4749C12.8688 42.8185 12.5 41.9283 12.5 41V40.5H51.5V41C51.5 41.9283 51.1312 42.8185 50.4749 43.4749C49.8185 44.1313 48.9283 44.5 48 44.5V44.5Z" fill="#0F265C"/>
<path d="M23.5 22.46H16.5C15.9477 22.46 15.5 22.9077 15.5 23.46V28.46C15.5 29.0123 15.9477 29.46 16.5 29.46H23.5C24.0523 29.46 24.5 29.0123 24.5 28.46V23.46C24.5 22.9077 24.0523 22.46 23.5 22.46Z" fill="#FFDD00"/>
</svg>
